<mxfile host="app.diagrams.net" modified="2021-09-28T13:15:40.164Z" agent="5.0 (Windows NT 10.0; Win64; x64) AppleWebKit/537.36 (KHTML, like Gecko) Chrome/94.0.4606.61 Safari/537.36" etag="405dpgR8aJEdALrRfqC7" version="15.3.4" type="github">
  <diagram id="R2lEEEUBdFMjLlhIrx00" name="TrainData">
    <mxGraphModel dx="2272" dy="786" grid="1" gridSize="10" guides="1" tooltips="1" connect="1" arrows="1" fold="1" page="1" pageScale="1" pageWidth="850" pageHeight="1100" math="0" shadow="0" extFonts="Permanent Marker^https://fonts.googleapis.com/css?family=Permanent+Marker">
      <root>
        <mxCell id="0" />
        <mxCell id="1" parent="0" />
        <mxCell id="O8R1GnMpbd19PZaHdF5z-1" value="TRACK" style="whiteSpace=wrap;html=1;align=center;hachureGap=4;pointerEvents=0;" parent="1" vertex="1">
          <mxGeometry x="-395" y="320" width="100" height="40" as="geometry" />
        </mxCell>
        <mxCell id="O8R1GnMpbd19PZaHdF5z-2" value="Track-ID" style="ellipse;whiteSpace=wrap;html=1;align=center;fontStyle=4;hachureGap=4;pointerEvents=0;" parent="1" vertex="1">
          <mxGeometry x="-540" y="120" width="100" height="40" as="geometry" />
        </mxCell>
        <mxCell id="O8R1GnMpbd19PZaHdF5z-3" value="Title" style="ellipse;whiteSpace=wrap;html=1;align=center;hachureGap=4;pointerEvents=0;" parent="1" vertex="1">
          <mxGeometry x="-510" y="70" width="100" height="40" as="geometry" />
        </mxCell>
        <mxCell id="O8R1GnMpbd19PZaHdF5z-5" value="30s" style="ellipse;whiteSpace=wrap;html=1;align=center;hachureGap=4;pointerEvents=0;" parent="1" vertex="1">
          <mxGeometry x="-440" y="30" width="100" height="40" as="geometry" />
        </mxCell>
        <mxCell id="O8R1GnMpbd19PZaHdF5z-6" value="danceability" style="ellipse;whiteSpace=wrap;html=1;align=center;hachureGap=4;pointerEvents=0;" parent="1" vertex="1">
          <mxGeometry x="-350" y="10" width="100" height="40" as="geometry" />
        </mxCell>
        <mxCell id="O8R1GnMpbd19PZaHdF5z-7" value="energy" style="ellipse;whiteSpace=wrap;html=1;align=center;hachureGap=4;pointerEvents=0;" parent="1" vertex="1">
          <mxGeometry x="-280" y="40" width="100" height="40" as="geometry" />
        </mxCell>
        <mxCell id="O8R1GnMpbd19PZaHdF5z-8" value="key" style="ellipse;whiteSpace=wrap;html=1;align=center;hachureGap=4;pointerEvents=0;" parent="1" vertex="1">
          <mxGeometry x="-220" y="80" width="100" height="40" as="geometry" />
        </mxCell>
        <mxCell id="O8R1GnMpbd19PZaHdF5z-9" value="loudness" style="ellipse;whiteSpace=wrap;html=1;align=center;hachureGap=4;pointerEvents=0;" parent="1" vertex="1">
          <mxGeometry x="-170" y="120" width="100" height="40" as="geometry" />
        </mxCell>
        <mxCell id="O8R1GnMpbd19PZaHdF5z-10" value="mode" style="ellipse;whiteSpace=wrap;html=1;align=center;hachureGap=4;pointerEvents=0;" parent="1" vertex="1">
          <mxGeometry x="-140" y="170" width="100" height="40" as="geometry" />
        </mxCell>
        <mxCell id="O8R1GnMpbd19PZaHdF5z-11" value="speechiness" style="ellipse;whiteSpace=wrap;html=1;align=center;hachureGap=4;pointerEvents=0;" parent="1" vertex="1">
          <mxGeometry x="-130" y="220" width="100" height="40" as="geometry" />
        </mxCell>
        <mxCell id="O8R1GnMpbd19PZaHdF5z-12" value="acousticness" style="ellipse;whiteSpace=wrap;html=1;align=center;hachureGap=4;pointerEvents=0;" parent="1" vertex="1">
          <mxGeometry x="-110" y="270" width="100" height="40" as="geometry" />
        </mxCell>
        <mxCell id="O8R1GnMpbd19PZaHdF5z-13" value="instrumentalness" style="ellipse;whiteSpace=wrap;html=1;align=center;hachureGap=4;pointerEvents=0;" parent="1" vertex="1">
          <mxGeometry x="-120" y="320" width="100" height="40" as="geometry" />
        </mxCell>
        <mxCell id="O8R1GnMpbd19PZaHdF5z-14" value="liveness" style="ellipse;whiteSpace=wrap;html=1;align=center;hachureGap=4;pointerEvents=0;" parent="1" vertex="1">
          <mxGeometry x="-130" y="370" width="100" height="40" as="geometry" />
        </mxCell>
        <mxCell id="O8R1GnMpbd19PZaHdF5z-15" value="valence" style="ellipse;whiteSpace=wrap;html=1;align=center;hachureGap=4;pointerEvents=0;" parent="1" vertex="1">
          <mxGeometry x="-170" y="420" width="100" height="40" as="geometry" />
        </mxCell>
        <mxCell id="O8R1GnMpbd19PZaHdF5z-16" value="tempo" style="ellipse;whiteSpace=wrap;html=1;align=center;hachureGap=4;pointerEvents=0;" parent="1" vertex="1">
          <mxGeometry x="-220" y="460" width="100" height="40" as="geometry" />
        </mxCell>
        <mxCell id="O8R1GnMpbd19PZaHdF5z-17" value="duration_ms" style="ellipse;whiteSpace=wrap;html=1;align=center;hachureGap=4;pointerEvents=0;" parent="1" vertex="1">
          <mxGeometry x="-280" y="500" width="100" height="40" as="geometry" />
        </mxCell>
        <mxCell id="O8R1GnMpbd19PZaHdF5z-18" value="time_signature" style="ellipse;whiteSpace=wrap;html=1;align=center;hachureGap=4;pointerEvents=0;" parent="1" vertex="1">
          <mxGeometry x="-390" y="500" width="100" height="40" as="geometry" />
        </mxCell>
        <mxCell id="O8R1GnMpbd19PZaHdF5z-19" value="PLAYLIST" style="whiteSpace=wrap;html=1;align=center;hachureGap=4;pointerEvents=0;" parent="1" vertex="1">
          <mxGeometry x="-740" y="280" width="100" height="40" as="geometry" />
        </mxCell>
        <mxCell id="O8R1GnMpbd19PZaHdF5z-20" value="Playlist-ID" style="ellipse;whiteSpace=wrap;html=1;align=center;fontStyle=4;hachureGap=4;pointerEvents=0;" parent="1" vertex="1">
          <mxGeometry x="-830" y="220" width="100" height="40" as="geometry" />
        </mxCell>
        <mxCell id="O8R1GnMpbd19PZaHdF5z-21" value="CONTAIN" style="shape=rhombus;perimeter=rhombusPerimeter;whiteSpace=wrap;html=1;align=center;hachureGap=4;pointerEvents=0;" parent="1" vertex="1">
          <mxGeometry x="-590" y="270" width="120" height="60" as="geometry" />
        </mxCell>
        <mxCell id="O8R1GnMpbd19PZaHdF5z-22" value="" style="shape=link;html=1;rounded=0;endArrow=open;startSize=14;endSize=14;sourcePerimeterSpacing=8;targetPerimeterSpacing=8;exitX=1;exitY=0.5;exitDx=0;exitDy=0;entryX=0;entryY=0.5;entryDx=0;entryDy=0;" parent="1" source="O8R1GnMpbd19PZaHdF5z-19" target="O8R1GnMpbd19PZaHdF5z-21" edge="1">
          <mxGeometry relative="1" as="geometry">
            <mxPoint x="-635" y="340" as="sourcePoint" />
            <mxPoint x="-475" y="340" as="targetPoint" />
          </mxGeometry>
        </mxCell>
        <mxCell id="O8R1GnMpbd19PZaHdF5z-23" value="N" style="resizable=0;html=1;align=right;verticalAlign=bottom;" parent="O8R1GnMpbd19PZaHdF5z-22" connectable="0" vertex="1">
          <mxGeometry x="1" relative="1" as="geometry" />
        </mxCell>
        <mxCell id="O8R1GnMpbd19PZaHdF5z-24" value="" style="shape=link;html=1;rounded=0;endArrow=open;startSize=14;endSize=14;sourcePerimeterSpacing=8;targetPerimeterSpacing=8;exitX=0;exitY=0.5;exitDx=0;exitDy=0;entryX=1;entryY=0.5;entryDx=0;entryDy=0;" parent="1" source="O8R1GnMpbd19PZaHdF5z-1" target="O8R1GnMpbd19PZaHdF5z-21" edge="1">
          <mxGeometry relative="1" as="geometry">
            <mxPoint x="-755" y="320" as="sourcePoint" />
            <mxPoint x="-675" y="320" as="targetPoint" />
          </mxGeometry>
        </mxCell>
        <mxCell id="O8R1GnMpbd19PZaHdF5z-25" value="N" style="resizable=0;html=1;align=right;verticalAlign=bottom;" parent="O8R1GnMpbd19PZaHdF5z-24" connectable="0" vertex="1">
          <mxGeometry x="1" relative="1" as="geometry" />
        </mxCell>
        <mxCell id="O8R1GnMpbd19PZaHdF5z-26" value="LABEL" style="whiteSpace=wrap;html=1;align=center;hachureGap=4;pointerEvents=0;" parent="1" vertex="1">
          <mxGeometry x="-740" y="360" width="100" height="40" as="geometry" />
        </mxCell>
        <mxCell id="O8R1GnMpbd19PZaHdF5z-28" value="Name" style="ellipse;whiteSpace=wrap;html=1;align=center;fontStyle=4;hachureGap=4;pointerEvents=0;" parent="1" vertex="1">
          <mxGeometry x="-740" y="430" width="100" height="40" as="geometry" />
        </mxCell>
        <mxCell id="O8R1GnMpbd19PZaHdF5z-29" value="BE_ASSIGNED_TO" style="shape=rhombus;perimeter=rhombusPerimeter;whiteSpace=wrap;html=1;align=center;hachureGap=4;pointerEvents=0;" parent="1" vertex="1">
          <mxGeometry x="-610" y="350" width="160" height="60" as="geometry" />
        </mxCell>
        <mxCell id="O8R1GnMpbd19PZaHdF5z-30" value="" style="shape=link;html=1;rounded=0;endArrow=open;startSize=14;endSize=14;sourcePerimeterSpacing=8;targetPerimeterSpacing=8;exitX=1;exitY=0.5;exitDx=0;exitDy=0;entryX=0;entryY=0.5;entryDx=0;entryDy=0;" parent="1" source="O8R1GnMpbd19PZaHdF5z-26" target="O8R1GnMpbd19PZaHdF5z-29" edge="1">
          <mxGeometry relative="1" as="geometry">
            <mxPoint x="-675" y="320" as="sourcePoint" />
            <mxPoint x="-595" y="320" as="targetPoint" />
          </mxGeometry>
        </mxCell>
        <mxCell id="O8R1GnMpbd19PZaHdF5z-31" value="N" style="resizable=0;html=1;align=right;verticalAlign=bottom;" parent="O8R1GnMpbd19PZaHdF5z-30" connectable="0" vertex="1">
          <mxGeometry x="1" relative="1" as="geometry" />
        </mxCell>
        <mxCell id="O8R1GnMpbd19PZaHdF5z-32" value="" style="shape=link;html=1;rounded=0;endArrow=open;startSize=14;endSize=14;sourcePerimeterSpacing=8;targetPerimeterSpacing=8;exitX=0;exitY=0.5;exitDx=0;exitDy=0;entryX=1;entryY=0.5;entryDx=0;entryDy=0;" parent="1" source="O8R1GnMpbd19PZaHdF5z-1" target="O8R1GnMpbd19PZaHdF5z-29" edge="1">
          <mxGeometry relative="1" as="geometry">
            <mxPoint x="-755" y="510" as="sourcePoint" />
            <mxPoint x="-675" y="450" as="targetPoint" />
          </mxGeometry>
        </mxCell>
        <mxCell id="O8R1GnMpbd19PZaHdF5z-33" value="N" style="resizable=0;html=1;align=right;verticalAlign=bottom;" parent="O8R1GnMpbd19PZaHdF5z-32" connectable="0" vertex="1">
          <mxGeometry x="1" relative="1" as="geometry" />
        </mxCell>
        <mxCell id="2c1TFM7JJi7qjrIvkmbM-1" value="" style="endArrow=none;html=1;rounded=0;startSize=14;endSize=14;sourcePerimeterSpacing=8;targetPerimeterSpacing=8;exitX=0.5;exitY=1;exitDx=0;exitDy=0;entryX=0.5;entryY=0;entryDx=0;entryDy=0;" edge="1" parent="1" source="O8R1GnMpbd19PZaHdF5z-2" target="O8R1GnMpbd19PZaHdF5z-1">
          <mxGeometry relative="1" as="geometry">
            <mxPoint x="-615" y="250" as="sourcePoint" />
            <mxPoint x="-455" y="250" as="targetPoint" />
          </mxGeometry>
        </mxCell>
        <mxCell id="2c1TFM7JJi7qjrIvkmbM-2" value="" style="endArrow=none;html=1;rounded=0;startSize=14;endSize=14;sourcePerimeterSpacing=8;targetPerimeterSpacing=8;exitX=1;exitY=1;exitDx=0;exitDy=0;entryX=0.5;entryY=0;entryDx=0;entryDy=0;" edge="1" parent="1" source="O8R1GnMpbd19PZaHdF5z-3" target="O8R1GnMpbd19PZaHdF5z-1">
          <mxGeometry relative="1" as="geometry">
            <mxPoint x="-505" y="160" as="sourcePoint" />
            <mxPoint x="-425" y="300" as="targetPoint" />
          </mxGeometry>
        </mxCell>
        <mxCell id="2c1TFM7JJi7qjrIvkmbM-3" value="" style="endArrow=none;html=1;rounded=0;startSize=14;endSize=14;sourcePerimeterSpacing=8;targetPerimeterSpacing=8;exitX=0.5;exitY=1;exitDx=0;exitDy=0;entryX=0.5;entryY=0;entryDx=0;entryDy=0;" edge="1" parent="1" source="O8R1GnMpbd19PZaHdF5z-5" target="O8R1GnMpbd19PZaHdF5z-1">
          <mxGeometry relative="1" as="geometry">
            <mxPoint x="-439.64466094067257" y="104.14213562373106" as="sourcePoint" />
            <mxPoint x="-400" y="300" as="targetPoint" />
          </mxGeometry>
        </mxCell>
        <mxCell id="2c1TFM7JJi7qjrIvkmbM-4" value="" style="endArrow=none;html=1;rounded=0;startSize=14;endSize=14;sourcePerimeterSpacing=8;targetPerimeterSpacing=8;exitX=0.5;exitY=1;exitDx=0;exitDy=0;entryX=0.5;entryY=0;entryDx=0;entryDy=0;" edge="1" parent="1" source="O8R1GnMpbd19PZaHdF5z-6" target="O8R1GnMpbd19PZaHdF5z-1">
          <mxGeometry relative="1" as="geometry">
            <mxPoint x="-405" y="70" as="sourcePoint" />
            <mxPoint x="-425" y="300" as="targetPoint" />
          </mxGeometry>
        </mxCell>
        <mxCell id="2c1TFM7JJi7qjrIvkmbM-5" value="" style="endArrow=none;html=1;rounded=0;startSize=14;endSize=14;sourcePerimeterSpacing=8;targetPerimeterSpacing=8;exitX=0;exitY=1;exitDx=0;exitDy=0;entryX=1;entryY=0;entryDx=0;entryDy=0;" edge="1" parent="1" source="O8R1GnMpbd19PZaHdF5z-7" target="O8R1GnMpbd19PZaHdF5z-1">
          <mxGeometry relative="1" as="geometry">
            <mxPoint x="-315" y="50" as="sourcePoint" />
            <mxPoint x="-425" y="300" as="targetPoint" />
          </mxGeometry>
        </mxCell>
        <mxCell id="2c1TFM7JJi7qjrIvkmbM-6" value="" style="endArrow=none;html=1;rounded=0;startSize=14;endSize=14;sourcePerimeterSpacing=8;targetPerimeterSpacing=8;exitX=0;exitY=0.5;exitDx=0;exitDy=0;entryX=1;entryY=0;entryDx=0;entryDy=0;" edge="1" parent="1" source="O8R1GnMpbd19PZaHdF5z-8" target="O8R1GnMpbd19PZaHdF5z-1">
          <mxGeometry relative="1" as="geometry">
            <mxPoint x="-280.3553390593272" y="74.14213562373095" as="sourcePoint" />
            <mxPoint x="-375" y="300" as="targetPoint" />
          </mxGeometry>
        </mxCell>
        <mxCell id="2c1TFM7JJi7qjrIvkmbM-7" value="" style="endArrow=none;html=1;rounded=0;startSize=14;endSize=14;sourcePerimeterSpacing=8;targetPerimeterSpacing=8;exitX=0;exitY=0.5;exitDx=0;exitDy=0;entryX=1;entryY=0;entryDx=0;entryDy=0;" edge="1" parent="1" source="O8R1GnMpbd19PZaHdF5z-9" target="O8R1GnMpbd19PZaHdF5z-1">
          <mxGeometry relative="1" as="geometry">
            <mxPoint x="-235" y="100" as="sourcePoint" />
            <mxPoint x="-375" y="300" as="targetPoint" />
          </mxGeometry>
        </mxCell>
        <mxCell id="2c1TFM7JJi7qjrIvkmbM-8" value="" style="endArrow=none;html=1;rounded=0;startSize=14;endSize=14;sourcePerimeterSpacing=8;targetPerimeterSpacing=8;exitX=0;exitY=0.5;exitDx=0;exitDy=0;entryX=1;entryY=0;entryDx=0;entryDy=0;" edge="1" parent="1" source="O8R1GnMpbd19PZaHdF5z-10" target="O8R1GnMpbd19PZaHdF5z-1">
          <mxGeometry relative="1" as="geometry">
            <mxPoint x="-185" y="140" as="sourcePoint" />
            <mxPoint x="-375" y="300" as="targetPoint" />
          </mxGeometry>
        </mxCell>
        <mxCell id="2c1TFM7JJi7qjrIvkmbM-9" value="" style="endArrow=none;html=1;rounded=0;startSize=14;endSize=14;sourcePerimeterSpacing=8;targetPerimeterSpacing=8;exitX=0;exitY=0.5;exitDx=0;exitDy=0;entryX=1;entryY=0;entryDx=0;entryDy=0;" edge="1" parent="1" source="O8R1GnMpbd19PZaHdF5z-11" target="O8R1GnMpbd19PZaHdF5z-1">
          <mxGeometry relative="1" as="geometry">
            <mxPoint x="-144.99999999999977" y="190" as="sourcePoint" />
            <mxPoint x="-375" y="300" as="targetPoint" />
          </mxGeometry>
        </mxCell>
        <mxCell id="2c1TFM7JJi7qjrIvkmbM-10" value="" style="endArrow=none;html=1;rounded=0;startSize=14;endSize=14;sourcePerimeterSpacing=8;targetPerimeterSpacing=8;exitX=0;exitY=0.5;exitDx=0;exitDy=0;entryX=1;entryY=0.5;entryDx=0;entryDy=0;" edge="1" parent="1" source="O8R1GnMpbd19PZaHdF5z-12" target="O8R1GnMpbd19PZaHdF5z-1">
          <mxGeometry relative="1" as="geometry">
            <mxPoint x="-134.99999999999977" y="240" as="sourcePoint" />
            <mxPoint x="-375" y="300" as="targetPoint" />
          </mxGeometry>
        </mxCell>
        <mxCell id="2c1TFM7JJi7qjrIvkmbM-11" value="" style="endArrow=none;html=1;rounded=0;startSize=14;endSize=14;sourcePerimeterSpacing=8;targetPerimeterSpacing=8;exitX=0;exitY=0.5;exitDx=0;exitDy=0;entryX=1;entryY=0.5;entryDx=0;entryDy=0;" edge="1" parent="1" source="O8R1GnMpbd19PZaHdF5z-13" target="O8R1GnMpbd19PZaHdF5z-1">
          <mxGeometry relative="1" as="geometry">
            <mxPoint x="-115.00000000000546" y="290" as="sourcePoint" />
            <mxPoint x="-375" y="320" as="targetPoint" />
          </mxGeometry>
        </mxCell>
        <mxCell id="2c1TFM7JJi7qjrIvkmbM-12" value="" style="endArrow=none;html=1;rounded=0;startSize=14;endSize=14;sourcePerimeterSpacing=8;targetPerimeterSpacing=8;exitX=0;exitY=0.5;exitDx=0;exitDy=0;entryX=1;entryY=0.5;entryDx=0;entryDy=0;" edge="1" parent="1" source="O8R1GnMpbd19PZaHdF5z-14" target="O8R1GnMpbd19PZaHdF5z-1">
          <mxGeometry relative="1" as="geometry">
            <mxPoint x="-125.00000000000546" y="340" as="sourcePoint" />
            <mxPoint x="-375" y="320" as="targetPoint" />
          </mxGeometry>
        </mxCell>
        <mxCell id="2c1TFM7JJi7qjrIvkmbM-13" value="" style="endArrow=none;html=1;rounded=0;startSize=14;endSize=14;sourcePerimeterSpacing=8;targetPerimeterSpacing=8;exitX=0;exitY=0;exitDx=0;exitDy=0;entryX=1;entryY=0.5;entryDx=0;entryDy=0;" edge="1" parent="1" source="O8R1GnMpbd19PZaHdF5z-15" target="O8R1GnMpbd19PZaHdF5z-1">
          <mxGeometry relative="1" as="geometry">
            <mxPoint x="-134.99999999999977" y="390" as="sourcePoint" />
            <mxPoint x="-375" y="320" as="targetPoint" />
          </mxGeometry>
        </mxCell>
        <mxCell id="2c1TFM7JJi7qjrIvkmbM-14" value="" style="endArrow=none;html=1;rounded=0;startSize=14;endSize=14;sourcePerimeterSpacing=8;targetPerimeterSpacing=8;exitX=0;exitY=0;exitDx=0;exitDy=0;entryX=1;entryY=1;entryDx=0;entryDy=0;" edge="1" parent="1" source="O8R1GnMpbd19PZaHdF5z-16" target="O8R1GnMpbd19PZaHdF5z-1">
          <mxGeometry relative="1" as="geometry">
            <mxPoint x="-160.3553390593272" y="425.85786437626905" as="sourcePoint" />
            <mxPoint x="-375" y="320" as="targetPoint" />
          </mxGeometry>
        </mxCell>
        <mxCell id="2c1TFM7JJi7qjrIvkmbM-15" value="" style="endArrow=none;html=1;rounded=0;startSize=14;endSize=14;sourcePerimeterSpacing=8;targetPerimeterSpacing=8;exitX=0;exitY=0;exitDx=0;exitDy=0;entryX=1;entryY=1;entryDx=0;entryDy=0;" edge="1" parent="1" source="O8R1GnMpbd19PZaHdF5z-17" target="O8R1GnMpbd19PZaHdF5z-1">
          <mxGeometry relative="1" as="geometry">
            <mxPoint x="-210.3553390593272" y="465.85786437626894" as="sourcePoint" />
            <mxPoint x="-375" y="340" as="targetPoint" />
          </mxGeometry>
        </mxCell>
        <mxCell id="2c1TFM7JJi7qjrIvkmbM-16" value="" style="endArrow=none;html=1;rounded=0;startSize=14;endSize=14;sourcePerimeterSpacing=8;targetPerimeterSpacing=8;exitX=0.5;exitY=0;exitDx=0;exitDy=0;entryX=1;entryY=1;entryDx=0;entryDy=0;" edge="1" parent="1" source="O8R1GnMpbd19PZaHdF5z-18" target="O8R1GnMpbd19PZaHdF5z-1">
          <mxGeometry relative="1" as="geometry">
            <mxPoint x="-270.35533905933517" y="505.85786437626575" as="sourcePoint" />
            <mxPoint x="-375" y="340" as="targetPoint" />
          </mxGeometry>
        </mxCell>
        <mxCell id="2c1TFM7JJi7qjrIvkmbM-17" value="" style="endArrow=none;html=1;rounded=0;startSize=14;endSize=14;sourcePerimeterSpacing=8;targetPerimeterSpacing=8;exitX=0.5;exitY=1;exitDx=0;exitDy=0;entryX=0.5;entryY=0;entryDx=0;entryDy=0;" edge="1" parent="1" source="O8R1GnMpbd19PZaHdF5z-26" target="O8R1GnMpbd19PZaHdF5z-28">
          <mxGeometry relative="1" as="geometry">
            <mxPoint x="-135.35533905933517" y="505.85786437626575" as="sourcePoint" />
            <mxPoint x="-240" y="340" as="targetPoint" />
          </mxGeometry>
        </mxCell>
        <mxCell id="2c1TFM7JJi7qjrIvkmbM-18" value="" style="endArrow=none;html=1;rounded=0;startSize=14;endSize=14;sourcePerimeterSpacing=8;targetPerimeterSpacing=8;exitX=0.5;exitY=0;exitDx=0;exitDy=0;entryX=1;entryY=1;entryDx=0;entryDy=0;" edge="1" parent="1" source="O8R1GnMpbd19PZaHdF5z-19" target="O8R1GnMpbd19PZaHdF5z-20">
          <mxGeometry relative="1" as="geometry">
            <mxPoint x="-730" y="500" as="sourcePoint" />
            <mxPoint x="-764.746110356037" y="464.18259928205384" as="targetPoint" />
          </mxGeometry>
        </mxCell>
        <mxCell id="2c1TFM7JJi7qjrIvkmbM-19" value="Language" style="ellipse;whiteSpace=wrap;html=1;align=center;hachureGap=4;pointerEvents=0;" vertex="1" parent="1">
          <mxGeometry x="-740" y="190" width="100" height="40" as="geometry" />
        </mxCell>
        <mxCell id="2c1TFM7JJi7qjrIvkmbM-20" value="isTruthWorthy" style="ellipse;whiteSpace=wrap;html=1;align=center;hachureGap=4;pointerEvents=0;" vertex="1" parent="1">
          <mxGeometry x="-640" y="220" width="100" height="40" as="geometry" />
        </mxCell>
        <mxCell id="2c1TFM7JJi7qjrIvkmbM-21" value="" style="endArrow=none;html=1;rounded=0;startSize=14;endSize=14;sourcePerimeterSpacing=8;targetPerimeterSpacing=8;exitX=0.5;exitY=0;exitDx=0;exitDy=0;entryX=0.5;entryY=1;entryDx=0;entryDy=0;" edge="1" parent="1" source="O8R1GnMpbd19PZaHdF5z-19" target="2c1TFM7JJi7qjrIvkmbM-19">
          <mxGeometry relative="1" as="geometry">
            <mxPoint x="-680" y="290" as="sourcePoint" />
            <mxPoint x="-734.6446609406726" y="264.14213562373106" as="targetPoint" />
          </mxGeometry>
        </mxCell>
        <mxCell id="2c1TFM7JJi7qjrIvkmbM-22" value="" style="endArrow=none;html=1;rounded=0;startSize=14;endSize=14;sourcePerimeterSpacing=8;targetPerimeterSpacing=8;exitX=0.5;exitY=0;exitDx=0;exitDy=0;entryX=0;entryY=1;entryDx=0;entryDy=0;" edge="1" parent="1" source="O8R1GnMpbd19PZaHdF5z-19" target="2c1TFM7JJi7qjrIvkmbM-20">
          <mxGeometry relative="1" as="geometry">
            <mxPoint x="-680" y="290" as="sourcePoint" />
            <mxPoint x="-680" y="240" as="targetPoint" />
          </mxGeometry>
        </mxCell>
        <mxCell id="2c1TFM7JJi7qjrIvkmbM-23" value="&lt;span&gt;&lt;u&gt;Playlist-ID&lt;/u&gt;&lt;/span&gt;" style="whiteSpace=wrap;html=1;align=center;hachureGap=4;pointerEvents=0;" vertex="1" parent="1">
          <mxGeometry x="-825" y="590" width="100" height="40" as="geometry" />
        </mxCell>
        <mxCell id="2c1TFM7JJi7qjrIvkmbM-25" value="Language" style="whiteSpace=wrap;html=1;align=center;hachureGap=4;pointerEvents=0;" vertex="1" parent="1">
          <mxGeometry x="-725" y="590" width="100" height="40" as="geometry" />
        </mxCell>
        <mxCell id="2c1TFM7JJi7qjrIvkmbM-26" value="isTruthWorthy" style="whiteSpace=wrap;html=1;align=center;hachureGap=4;pointerEvents=0;" vertex="1" parent="1">
          <mxGeometry x="-625" y="590" width="100" height="40" as="geometry" />
        </mxCell>
        <mxCell id="2c1TFM7JJi7qjrIvkmbM-27" value="&lt;b&gt;PLAYLIST&lt;/b&gt;" style="text;html=1;strokeColor=none;fillColor=none;align=left;verticalAlign=middle;whiteSpace=wrap;rounded=0;hachureGap=4;pointerEvents=0;" vertex="1" parent="1">
          <mxGeometry x="-825" y="570" width="40" height="20" as="geometry" />
        </mxCell>
        <mxCell id="2c1TFM7JJi7qjrIvkmbM-28" value="&lt;span&gt;&lt;u&gt;Name&lt;/u&gt;&lt;/span&gt;" style="whiteSpace=wrap;html=1;align=center;hachureGap=4;pointerEvents=0;" vertex="1" parent="1">
          <mxGeometry x="-510" y="590" width="100" height="40" as="geometry" />
        </mxCell>
        <mxCell id="2c1TFM7JJi7qjrIvkmbM-31" value="&lt;b&gt;LABEL&lt;/b&gt;" style="text;html=1;strokeColor=none;fillColor=none;align=left;verticalAlign=middle;whiteSpace=wrap;rounded=0;hachureGap=4;pointerEvents=0;" vertex="1" parent="1">
          <mxGeometry x="-510" y="570" width="40" height="20" as="geometry" />
        </mxCell>
        <mxCell id="2c1TFM7JJi7qjrIvkmbM-32" value="&lt;span&gt;&lt;u&gt;Track-ID&lt;/u&gt;&lt;/span&gt;" style="whiteSpace=wrap;html=1;align=center;hachureGap=4;pointerEvents=0;" vertex="1" parent="1">
          <mxGeometry x="-825" y="790" width="100" height="40" as="geometry" />
        </mxCell>
        <mxCell id="2c1TFM7JJi7qjrIvkmbM-33" value="&lt;b&gt;TRACK&lt;/b&gt;" style="text;html=1;strokeColor=none;fillColor=none;align=left;verticalAlign=middle;whiteSpace=wrap;rounded=0;hachureGap=4;pointerEvents=0;" vertex="1" parent="1">
          <mxGeometry x="-825" y="770" width="40" height="20" as="geometry" />
        </mxCell>
        <mxCell id="2c1TFM7JJi7qjrIvkmbM-34" value="Title" style="whiteSpace=wrap;html=1;align=center;hachureGap=4;pointerEvents=0;" vertex="1" parent="1">
          <mxGeometry x="-725" y="790" width="100" height="40" as="geometry" />
        </mxCell>
        <mxCell id="2c1TFM7JJi7qjrIvkmbM-35" value="30s" style="whiteSpace=wrap;html=1;align=center;hachureGap=4;pointerEvents=0;" vertex="1" parent="1">
          <mxGeometry x="-625" y="790" width="100" height="40" as="geometry" />
        </mxCell>
        <mxCell id="2c1TFM7JJi7qjrIvkmbM-36" value="danceability" style="whiteSpace=wrap;html=1;align=center;hachureGap=4;pointerEvents=0;" vertex="1" parent="1">
          <mxGeometry x="-525" y="790" width="100" height="40" as="geometry" />
        </mxCell>
        <mxCell id="2c1TFM7JJi7qjrIvkmbM-37" value="energy" style="whiteSpace=wrap;html=1;align=center;hachureGap=4;pointerEvents=0;" vertex="1" parent="1">
          <mxGeometry x="-425" y="790" width="100" height="40" as="geometry" />
        </mxCell>
        <mxCell id="2c1TFM7JJi7qjrIvkmbM-38" value="key" style="whiteSpace=wrap;html=1;align=center;hachureGap=4;pointerEvents=0;" vertex="1" parent="1">
          <mxGeometry x="-325" y="790" width="100" height="40" as="geometry" />
        </mxCell>
        <mxCell id="2c1TFM7JJi7qjrIvkmbM-39" value="loudness" style="whiteSpace=wrap;html=1;align=center;hachureGap=4;pointerEvents=0;" vertex="1" parent="1">
          <mxGeometry x="-225" y="790" width="100" height="40" as="geometry" />
        </mxCell>
        <mxCell id="2c1TFM7JJi7qjrIvkmbM-40" value="mode" style="whiteSpace=wrap;html=1;align=center;hachureGap=4;pointerEvents=0;" vertex="1" parent="1">
          <mxGeometry x="-125" y="790" width="100" height="40" as="geometry" />
        </mxCell>
        <mxCell id="2c1TFM7JJi7qjrIvkmbM-41" value="speechiness" style="whiteSpace=wrap;html=1;align=center;hachureGap=4;pointerEvents=0;" vertex="1" parent="1">
          <mxGeometry x="-825" y="830" width="100" height="40" as="geometry" />
        </mxCell>
        <mxCell id="2c1TFM7JJi7qjrIvkmbM-42" value="acousticness" style="whiteSpace=wrap;html=1;align=center;hachureGap=4;pointerEvents=0;" vertex="1" parent="1">
          <mxGeometry x="-725" y="830" width="100" height="40" as="geometry" />
        </mxCell>
        <mxCell id="2c1TFM7JJi7qjrIvkmbM-43" value="instrumentalness" style="whiteSpace=wrap;html=1;align=center;hachureGap=4;pointerEvents=0;" vertex="1" parent="1">
          <mxGeometry x="-625" y="830" width="100" height="40" as="geometry" />
        </mxCell>
        <mxCell id="2c1TFM7JJi7qjrIvkmbM-44" value="liveness" style="whiteSpace=wrap;html=1;align=center;hachureGap=4;pointerEvents=0;" vertex="1" parent="1">
          <mxGeometry x="-525" y="830" width="100" height="40" as="geometry" />
        </mxCell>
        <mxCell id="2c1TFM7JJi7qjrIvkmbM-45" value="valence" style="whiteSpace=wrap;html=1;align=center;hachureGap=4;pointerEvents=0;" vertex="1" parent="1">
          <mxGeometry x="-425" y="830" width="100" height="40" as="geometry" />
        </mxCell>
        <mxCell id="2c1TFM7JJi7qjrIvkmbM-46" value="tempo" style="whiteSpace=wrap;html=1;align=center;hachureGap=4;pointerEvents=0;" vertex="1" parent="1">
          <mxGeometry x="-325" y="830" width="100" height="40" as="geometry" />
        </mxCell>
        <mxCell id="2c1TFM7JJi7qjrIvkmbM-47" value="duration_ms" style="whiteSpace=wrap;html=1;align=center;hachureGap=4;pointerEvents=0;" vertex="1" parent="1">
          <mxGeometry x="-225" y="830" width="100" height="40" as="geometry" />
        </mxCell>
        <mxCell id="2c1TFM7JJi7qjrIvkmbM-48" value="time_signature" style="whiteSpace=wrap;html=1;align=center;hachureGap=4;pointerEvents=0;" vertex="1" parent="1">
          <mxGeometry x="-125" y="830" width="100" height="40" as="geometry" />
        </mxCell>
        <mxCell id="2c1TFM7JJi7qjrIvkmbM-49" value="Playlist-ID" style="whiteSpace=wrap;html=1;align=center;hachureGap=4;pointerEvents=0;" vertex="1" parent="1">
          <mxGeometry x="-825" y="690" width="100" height="40" as="geometry" />
        </mxCell>
        <mxCell id="2c1TFM7JJi7qjrIvkmbM-50" value="&lt;span&gt;Track-ID&lt;/span&gt;" style="whiteSpace=wrap;html=1;align=center;hachureGap=4;pointerEvents=0;" vertex="1" parent="1">
          <mxGeometry x="-725" y="690" width="100" height="40" as="geometry" />
        </mxCell>
        <mxCell id="2c1TFM7JJi7qjrIvkmbM-51" value="&lt;b&gt;CONTAIN&lt;/b&gt;" style="text;html=1;strokeColor=none;fillColor=none;align=left;verticalAlign=middle;whiteSpace=wrap;rounded=0;hachureGap=4;pointerEvents=0;" vertex="1" parent="1">
          <mxGeometry x="-825" y="670" width="40" height="20" as="geometry" />
        </mxCell>
        <mxCell id="2c1TFM7JJi7qjrIvkmbM-52" value="Playlist-ID" style="whiteSpace=wrap;html=1;align=center;hachureGap=4;pointerEvents=0;" vertex="1" parent="1">
          <mxGeometry x="-590" y="690" width="100" height="40" as="geometry" />
        </mxCell>
        <mxCell id="2c1TFM7JJi7qjrIvkmbM-53" value="&lt;span&gt;Track-ID&lt;/span&gt;" style="whiteSpace=wrap;html=1;align=center;hachureGap=4;pointerEvents=0;" vertex="1" parent="1">
          <mxGeometry x="-490" y="690" width="100" height="40" as="geometry" />
        </mxCell>
        <mxCell id="2c1TFM7JJi7qjrIvkmbM-54" value="&lt;b&gt;BE_ASSIGNED_TO&lt;/b&gt;" style="text;html=1;strokeColor=none;fillColor=none;align=left;verticalAlign=middle;whiteSpace=wrap;rounded=0;hachureGap=4;pointerEvents=0;" vertex="1" parent="1">
          <mxGeometry x="-590" y="670" width="40" height="20" as="geometry" />
        </mxCell>
        <mxCell id="2c1TFM7JJi7qjrIvkmbM-55" value="" style="endArrow=none;html=1;rounded=0;startSize=14;endSize=14;sourcePerimeterSpacing=8;targetPerimeterSpacing=8;exitX=0.5;exitY=0;exitDx=0;exitDy=0;" edge="1" parent="1">
          <mxGeometry relative="1" as="geometry">
            <mxPoint x="-810" y="720" as="sourcePoint" />
            <mxPoint x="-640" y="720" as="targetPoint" />
          </mxGeometry>
        </mxCell>
        <mxCell id="2c1TFM7JJi7qjrIvkmbM-56" value="" style="endArrow=none;html=1;rounded=0;startSize=14;endSize=14;sourcePerimeterSpacing=8;targetPerimeterSpacing=8;exitX=0.5;exitY=0;exitDx=0;exitDy=0;" edge="1" parent="1">
          <mxGeometry relative="1" as="geometry">
            <mxPoint x="-575" y="720" as="sourcePoint" />
            <mxPoint x="-405" y="720" as="targetPoint" />
          </mxGeometry>
        </mxCell>
      </root>
    </mxGraphModel>
  </diagram>
</mxfile>
